<?xml version="1.0" encoding="UTF-8"?><svg id="Ebene_2" xmlns="http://www.w3.org/2000/svg" viewBox="0 0 1701.36 252.39"><defs><style>.cls-1{fill:#fbfbfb;}</style></defs><g id="Ebene_1-2"><g><path class="cls-1" d="M22.94,39.21V5.23h108.91V200.4h47.05V5.23h34.27V200.4h16.26v34.27H0v-34.27H97.59V39.21H22.94Zm.87,24.98c.19-.58,5.9-.87,17.14-.87h16.26v112.98H22.94v-55.47c0-37.56,.29-56.44,.87-56.63Z"/><path class="cls-1" d="M259.94,137.09V2.61h34.27V137.09h-34.27Zm68.54,94.97V2.61h34.27V232.06h-34.27Zm68.54,0V100.2h34.27V232.06h-34.27Z"/><path class="cls-1" d="M547.18,3.49c0-.58,5.81-.87,17.43-.87h17.43V103.4h33.11c-.2,3.87-.29,9.68-.29,17.43s-.1,13.55-.29,17.43l-16.26,.58-16.26,.29v33.11h100.49v35.43h-100.49v30.79h-34.56v-18.88l.29-11.91h-86.84v-35.43l42.98-.29,42.98-.58,.29-15.97,.58-16.26-37.47-.29-37.18-.58-.58-17.43-.29-17.43c8.32,0,20.77-.1,37.32-.29,16.56-.19,28.99-.29,37.32-.29V24.54c0-3.97,.05-7.55,.15-10.75,.1-3.19,.15-5.66,.15-7.41V3.49Z"/><path class="cls-1" d="M801.89,58.38V2.61h32.53l.87,15.97c.58,9.1,.87,47.63,.87,115.59v99.33h-34.27v-56.05h-88.87v-33.98l44.15-.29,43.86-.58,.58-24.4,.29-24.4h-88.87V58.38h88.87Zm74.93-15.68c4.26-.39,8.81-.58,13.65-.58,9.1,0,14.04,.29,14.81,.87,.77,.39,1.55,25.66,2.32,75.8l.87,75.22h-34.27v-48.5c0-35.43-.29-60.6-.87-75.51l-.87-26.72,4.36-.58Z"/><path class="cls-1" d="M1024.36,3.49c0-.58,5.81-.87,17.43-.87h17.43V103.4h33.11c-.2,3.87-.29,9.68-.29,17.43s-.1,13.55-.29,17.43l-16.26,.58-16.26,.29v33.11h100.49v35.43h-100.49v30.79h-34.56v-18.88l.29-11.91h-86.84v-35.43l42.98-.29,42.98-.58,.29-15.97,.58-16.26-37.47-.29-37.18-.58-.58-17.43-.29-17.43c8.32,0,20.77-.1,37.32-.29,16.55-.19,28.99-.29,37.32-.29V24.54c0-3.97,.05-7.55,.15-10.75,.1-3.19,.15-5.66,.15-7.41V3.49Z"/><path class="cls-1" d="M1189.62,40.95V2.61h249.78V40.95h-104.56v105.43l-.58,105.43c-4.07,.19-10.27,.29-18.59,.29s-14.62,.1-18.88,.29v-48.5c-11.81,0-29.53-.09-53.15-.29-23.62-.19-41.34-.29-53.15-.29l-.58-18.59-.29-18.88h107.17V40.95h-107.17Z"/><path class="cls-1" d="M1666.8,96.71V0h34.56V230.61h-47.92c-34.47,0-56.64,.29-66.51,.87l-18.01,.87v-99.62h-98.17v-34.56h98.17V1.16l17.14,.58,17.43,.29-.29,47.92v47.63l31.95-.29,31.66-.58Zm0,99.62v-65.06h-30.79c-21.11,0-31.76,.29-31.95,.87-.58,.2-.87,11.04-.87,32.53v31.66h63.61Z"/></g></g></svg>