<?xml version="1.0" encoding="UTF-8"?><svg id="Ebene_2" xmlns="http://www.w3.org/2000/svg" viewBox="0 0 893.7 233.32"><defs><style>.cls-1{fill:#fbfbfb;}</style></defs><g id="Ebene_1-2"><g><path class="cls-1" d="M81.73,161.77V7.35h33.37V42.14l39.88-.57,40.16-.28v32.24l-7.35,.85c-8.48,.57-21.87,.85-40.16,.85h-32.52V229.65h-33.37v-34.5H0l.28-16.4,.57-16.4c9.05,0,22.53-.09,40.44-.28,17.91-.19,31.39-.28,40.44-.28Z"/><path class="cls-1" d="M225.4,93.33c.19-.94,6.03-1.41,17.53-1.41h16.69V228.52l-16.97-.57-17.25-.28-.28-66.46c0-44.69,.09-67.31,.28-67.88Zm14.42-32.52V27.43h67.03V60.81h-67.03Zm34.79,69.86v-38.75h33.37V228.52l-16.97-.57-16.97-.28,.28-29.13c0-4.9,.04-15.55,.14-31.96,.09-16.4,.14-28.37,.14-35.92Zm46.1-59.11l-.57-69.01h33.66V58.83c0,42.05,.28,73.81,.85,95.31l.85,39.31h93.9v34.79h-127.83v-43.84c0-37.33-.28-74.95-.85-112.84Zm48.08-10.75V27.43h68.16V60.81h-68.16Z"/><path class="cls-1" d="M563.37,4.52c0-.57,5.66-.85,16.97-.85h16.97V101.81h32.24c-.19,3.77-.28,9.43-.28,16.97s-.1,13.2-.28,16.97l-15.84,.57-15.84,.28v32.24h97.85v34.5h-97.85v29.98h-33.66v-18.38l.28-11.59h-84.56v-34.5l41.86-.28,41.86-.57,.28-15.55,.57-15.84-36.48-.28-36.2-.57-.57-16.97-.28-16.97c8.1,0,20.22-.09,36.34-.28,16.12-.19,28.23-.28,36.34-.28V25.03c0-3.86,.04-7.35,.14-10.46,.09-3.11,.14-5.51,.14-7.21v-2.83Z"/><path class="cls-1" d="M725.14,75.79V0h33.37V75.79h-33.37Zm84.28,20.93V0h33.66c0,10.56,.09,26.54,.28,47.94,.19,21.4,.28,37.47,.28,48.22,5.66,0,14.04,.1,25.17,.28,11.12,.19,19.42,.28,24.89,.28v33.66h-50.62v95.31h-33.66v-95.31h-50.91v-33.66h50.91Zm50.91,128.96v-74.38h33.37v74.38h-33.37Z"/></g></g></svg>