<?xml version="1.0" encoding="UTF-8"?><svg id="Ebene_2" xmlns="http://www.w3.org/2000/svg" viewBox="0 0 956.1 191.84"><defs><style>.cls-1{fill:#fbfbfb;}</style></defs><g id="Ebene_1-2"><g><path class="cls-1" d="M67.43,118.24V2.14h28.02c.16,12.82,.24,32.09,.24,57.81s.08,44.99,.24,57.81c4.43,0,10.92,.08,19.47,.24,8.55,.16,15.04,.24,19.47,.24V56.03h28.02v90.22c-7.44,0-18.6,.08-33.48,.24-14.88,.16-26.04,.24-33.48,.24-.16,5.07-.24,12.62-.24,22.67s-.08,17.53-.24,22.44h-28.02v-45.58H0v-28.02H67.43Z"/><path class="cls-1" d="M268.52,80.96V0h28.02V189.7h-28.02V108.98h-80.96v-28.02h80.96ZM339.51,1.19c.16-.79,4.99-1.19,14.48-1.19h14.01V108.98l-14.25-.24-14.25-.48-.47-52.71c0-35.29,.16-53.42,.47-54.37Z"/><path class="cls-1" d="M411.45,32.05V4.27h89.03V163.82h38.46V4.27h28.02V163.82h13.3v28.02h-187.57v-28.02h79.78V32.05h-61.02Zm.71,20.42c.16-.48,4.83-.71,14.01-.71h13.3v92.36h-28.02v-45.35c0-30.71,.24-46.14,.71-46.3Z"/><path class="cls-1" d="M605.19,112.06V2.14h28.02V112.06h-28.02Zm56.03,77.64V2.14h28.02V189.7h-28.02Zm56.03,0V81.91h28.02v107.79h-28.02Z"/><path class="cls-1" d="M769.72,76.21V2.14h186.38V30.39h-78.11c-.16,17.57-.24,44.01-.24,79.3s-.08,61.81-.24,79.54c-3.01,.16-7.6,.24-13.77,.24s-10.77,.08-13.77,.24V30.39h-52.23v45.82h-28.02Zm160.5,51.76c1.42-.48,6.25-.71,14.48-.71,4.9,0,7.99,.16,9.26,.47,.95,.32,1.54,1.98,1.78,4.99,.24,3.01,.36,11.79,.36,26.35v30.63h-27.07v-30.63c0-20.57,.39-30.94,1.19-31.1Z"/></g></g></svg>