<svg xmlns="http://www.w3.org/2000/svg" viewBox="0 0 256.34 30.87"><defs><style>.a{fill:#fff;}</style></defs><path className="a" d="M5.57,22.62A4.16,4.16,0,0,0,9,24.42c2.41,0,3.7-1.3,3.7-5.62V3.51h5V18.8c0,7.17-3.2,9.87-8.42,9.87-3.56,0-6.19-1.3-7.88-3.71Z"></path><path className="a" d="M43.33,3.51V18.26c0,7.35-4,10.41-9.53,10.41s-9.54-3.06-9.54-10.37V3.51h5V18.3c0,4.25,1.4,6.12,4.5,6.12s4.49-1.87,4.49-6.12V3.51Z"></path><path className="a" d="M62.81,10a5.06,5.06,0,0,0-4.89-2.52c-2.27,0-3.5,1-3.5,2.73,0,1.95,1.59,2.81,4.9,3.64,5.18,1.3,7.52,3.24,7.52,7.63,0,4.07-2.73,7.24-8.56,7.24-4.36,0-7.38-1.19-9.58-4.07l3.85-2.67A6.2,6.2,0,0,0,58,24.42c2.88,0,3.85-1.26,3.85-2.77,0-1.73-1-2.7-5.07-3.75-4.9-1.29-7.35-3.63-7.35-7.74,0-3.92,2.6-7,8.5-7,4,0,6.95,1.33,8.71,4.07Z"></path><path className="a" d="M88.62,3.51V7.79H81.78V28.34h-5V7.79H69.9V3.51Z"></path><path className="a" d="M89.09,28.34,97.73,3.51h4.83l8.63,24.83h-5.36l-1.51-4.71H96l-1.51,4.71Zm8.25-9H103l-2.81-8.75Z"></path><path className="a" d="M115.19,28.34V3.51H124c5.62,0,9.54,2.88,9.54,10.79v3.24c0,7.89-3.92,10.8-9.54,10.8Zm13.32-10.8V14.3c0-4.28-1.15-6.51-4.5-6.51h-3.78V24.1H124C127.36,24.1,128.51,21.83,128.51,17.54Z"></path><path className="a" d="M139.35,28.34V3.51h8.82c5.61,0,9.54,2.88,9.54,10.79v3.24c0,7.89-3.93,10.8-9.54,10.8Zm13.32-10.8V14.3c0-4.28-1.16-6.51-4.5-6.51h-3.78V24.1h3.78C151.51,24.1,152.67,21.83,152.67,17.54Z"></path><path className="a" d="M175.2,17l6.91-13.53h4.79V28.34h-4.82V12.94l-5.4,10.94h-3.06L168.29,13v15.3H163.5V3.51h4.72Z"></path><path className="a" d="M208.94,3.51V7.79H198.5v5.58h9.36v4.25H198.5V24.1h10.44v4.24H193.46V3.51Z"></path><path className="a" d="M230.64,3.51V7.79H223.8V28.34h-5V7.79h-6.83V3.51Z"></path><path className="a" d="M231.11,28.34l8.64-24.83h4.82l8.64,24.83h-5.36l-1.51-4.71H238l-1.51,4.71Zm8.25-9H245l-2.81-8.75Z"></path></svg>