<?xml version="1.0" encoding="UTF-8"?><svg id="Ebene_2" xmlns="http://www.w3.org/2000/svg" viewBox="0 0 1104.65 289.88"><defs><style>.cls-1{fill:#fbfbfb;}</style></defs><g id="Ebene_1-2"><g><path class="cls-1" d="M0,117.32V4.69H283.38V47.65h-118.77c-.24,26.71-.36,66.91-.36,120.57s-.12,93.98-.36,120.93c-4.57,.24-11.55,.36-20.94,.36s-16.37,.12-20.94,.36V47.65H42.6V117.32H0Zm244.04,78.7c2.17-.72,9.5-1.08,22.02-1.08,7.46,0,12.15,.24,14.08,.72,1.44,.48,2.35,3.01,2.71,7.58,.36,4.57,.54,17.93,.54,40.07v46.57h-41.15v-46.57c0-31.28,.6-47.05,1.81-47.29Z"/><path class="cls-1" d="M319.84,171.84V4.69h42.6V171.84h-42.6Zm85.2,118.05V4.69h42.6V289.88h-42.6Zm85.2,0V125.99h42.6v163.89h-42.6Z"/><path class="cls-1" d="M570.01,96.75V0h42.6V96.75h-42.6Zm107.58,26.71V0h42.96c0,13.48,.12,33.88,.36,61.19,.24,27.32,.36,47.83,.36,61.55,7.22,0,17.93,.12,32.13,.36,14.2,.24,24.79,.36,31.77,.36v42.96h-64.62v121.66h-42.96v-121.66h-64.98v-42.96h64.98Zm64.98,164.62v-94.94h42.6v94.94h-42.6Z"/><path class="cls-1" d="M821.26,45.85V3.25h163.17V43.32c0,36.1,.36,76.41,1.08,120.93l.72,81.22h118.41v41.15h-161.37v-97.83c0-67.63-.36-107.7-1.08-120.21l-1.08-22.74h-119.85Zm0,240.79V115.52h42.6v171.11h-42.6ZM1019.09,45.85V3.25h85.56V45.85h-85.56Z"/></g></g></svg>